<svg width="32" height="35" viewBox="0 0 32 35" fill="none" xmlns="http://www.w3.org/2000/svg">
<path d="M1.69116 0.0118325C1.16517 0.135558 0.694154 0.561404 0.381733 1.19569C0.0693122 1.82997 -0.0589245 2.62074 0.0252335 3.39402C0.109392 4.16731 0.399051 4.85977 0.830489 5.31908C1.26193 5.77839 1.7998 5.96692 2.32579 5.84319H8.27551L8.6325 7.30103L10.2588 14.5902L11.885 21.8794C12.0437 22.6375 12.718 23.3373 13.2336 23.3373H27.1163C27.6716 23.3373 28.3062 22.6375 28.4649 21.8794L31.6778 7.30103C31.8364 6.54296 31.5984 5.84319 31.0431 5.84319H13.4319L11.9247 1.64461C11.7641 1.16271 11.5163 0.755276 11.2083 0.467189C10.9004 0.179102 10.5444 0.0215331 10.1794 0.0118325L2.24646 0.0118325C2.12771 -0.00394417 2.00823 -0.00394417 1.88948 0.0118325C1.81022 0.00482857 1.73075 0.00482857 1.65149 0.0118325L1.69116 0.0118325ZM14.2252 29.1686C13.1146 29.1686 12.242 30.4515 12.242 32.0843C12.242 33.7171 13.1146 35 14.2252 35C15.3358 35 16.2085 33.7171 16.2085 32.0843C16.2085 30.4515 15.3358 29.1686 14.2252 29.1686ZM26.1247 29.1686C25.0141 29.1686 24.1414 30.4515 24.1414 32.0843C24.1414 33.7171 25.0141 35 26.1247 35C27.2353 35 28.1079 33.7171 28.1079 32.0843C28.1079 30.4515 27.2353 29.1686 26.1247 29.1686Z" fill="#6F59F4"/>
</svg>
