<svg width="98" height="20" viewBox="0 0 104 27" fill="none" xmlns="http://www.w3.org/2000/svg">
<path d="M7.57047 21.8829C6.29047 21.8829 5.18247 21.6789 4.24647 21.2709C3.31047 20.8629 2.58247 20.2509 2.06247 19.4349C1.54247 18.6109 1.27047 17.5789 1.24647 16.3389H3.98247C4.01447 17.0109 4.17847 17.5749 4.47447 18.0309C4.77847 18.4869 5.20247 18.8269 5.74647 19.0509C6.29847 19.2749 6.96247 19.3869 7.73847 19.3869C8.48247 19.3869 9.09047 19.2989 9.56247 19.1229C10.0345 18.9469 10.3825 18.6989 10.6065 18.3789C10.8305 18.0509 10.9425 17.6669 10.9425 17.2269C10.9425 16.7469 10.8065 16.3429 10.5345 16.0149C10.2625 15.6789 9.83047 15.3669 9.23847 15.0789C8.65447 14.7829 7.87847 14.4669 6.91047 14.1309C5.91047 13.7869 5.03447 13.3669 4.28247 12.8709C3.53847 12.3749 2.95847 11.7869 2.54247 11.1069C2.13447 10.4189 1.93047 9.61488 1.93047 8.69488C1.93047 7.14288 2.43847 5.95888 3.45447 5.14288C4.47047 4.32688 5.86247 3.91888 7.63047 3.91888C8.85447 3.91888 9.84647 4.10688 10.6065 4.48288C11.3665 4.85888 11.9385 5.41488 12.3225 6.15088C12.7145 6.87888 12.9745 7.78288 13.1025 8.86288H10.3545C10.2825 8.31088 10.1345 7.85488 9.91047 7.49488C9.68647 7.13488 9.37847 6.86688 8.98647 6.69088C8.60247 6.50688 8.11847 6.41488 7.53447 6.41488C6.63047 6.41488 5.93447 6.59888 5.44647 6.96688C4.95847 7.32688 4.71447 7.86688 4.71447 8.58688C4.71447 8.99488 4.79047 9.36688 4.94247 9.70288C5.10247 10.0389 5.42647 10.3709 5.91447 10.6989C6.41047 11.0269 7.15447 11.3869 8.14647 11.7789C8.91447 12.0829 9.63447 12.3749 10.3065 12.6549C10.9865 12.9269 11.5825 13.2429 12.0945 13.6029C12.6145 13.9629 13.0225 14.4109 13.3185 14.9469C13.6145 15.4829 13.7665 16.1629 13.7745 16.9869C13.7905 18.5709 13.2705 19.7829 12.2145 20.6229C11.1665 21.4629 9.61847 21.8829 7.57047 21.8829ZM16.6232 21.6429V8.53888H19.4912L19.4552 21.6429H16.6232ZM18.0752 6.60688C17.5552 6.60688 17.1152 6.42688 16.7552 6.06688C16.3952 5.69888 16.2152 5.23088 16.2152 4.66288C16.2152 4.10288 16.3952 3.64688 16.7552 3.29488C17.1152 2.94288 17.5552 2.76688 18.0752 2.76688C18.5792 2.76688 19.0112 2.94288 19.3712 3.29488C19.7392 3.64688 19.9232 4.10288 19.9232 4.66288C19.9232 5.23088 19.7392 5.69888 19.3712 6.06688C19.0112 6.42688 18.5792 6.60688 18.0752 6.60688ZM28.6627 26.9949C27.5987 26.9949 26.6387 26.8189 25.7827 26.4669C24.9347 26.1229 24.2787 25.5949 23.8147 24.8829C23.3507 24.1709 23.1707 23.2789 23.2747 22.2069H26.0107C26.0027 22.6629 26.0587 23.0709 26.1787 23.4309C26.2987 23.7989 26.5507 24.0909 26.9347 24.3069C27.3187 24.5229 27.9027 24.6309 28.6867 24.6309C29.3667 24.6309 29.8867 24.5349 30.2467 24.3429C30.6147 24.1509 30.8627 23.8589 30.9907 23.4669C31.1187 23.0749 31.1827 22.5669 31.1827 21.9429V18.3909C31.1107 18.7669 30.9547 19.1629 30.7147 19.5789C30.4747 19.9949 30.1027 20.3469 29.5987 20.6349C29.0947 20.9149 28.4147 21.0549 27.5587 21.0549C26.7827 21.0549 26.0907 20.8829 25.4827 20.5389C24.8747 20.1949 24.3587 19.7309 23.9347 19.1469C23.5107 18.5629 23.1867 17.9069 22.9627 17.1789C22.7467 16.4429 22.6387 15.6829 22.6387 14.8989C22.6387 13.4429 22.8787 12.2269 23.3587 11.2509C23.8467 10.2749 24.4747 9.53888 25.2427 9.04288C26.0107 8.54688 26.8227 8.29888 27.6787 8.29888C28.4387 8.29888 29.0507 8.40288 29.5147 8.61088C29.9867 8.81888 30.3547 9.07088 30.6187 9.36688C30.8827 9.66288 31.0747 9.95488 31.1947 10.2429L31.2067 8.55088H33.9787V21.9189C33.9787 23.1029 33.7467 24.0669 33.2827 24.8109C32.8267 25.5549 32.1987 26.0989 31.3987 26.4429C30.5987 26.7949 29.6867 26.9789 28.6627 26.9949ZM28.5307 18.7869C29.1307 18.7869 29.6147 18.7069 29.9827 18.5469C30.3507 18.3789 30.6307 18.1829 30.8227 17.9589C31.0147 17.7269 31.1347 17.5269 31.1827 17.3589V11.8749C31.1027 11.6829 30.9547 11.4949 30.7387 11.3109C30.5227 11.1269 30.2387 10.9749 29.8867 10.8549C29.5347 10.7349 29.1027 10.6749 28.5907 10.6749C27.7027 10.6749 26.9747 11.0029 26.4067 11.6589C25.8387 12.3149 25.5547 13.3429 25.5547 14.7429C25.5547 16.0149 25.8347 17.0069 26.3947 17.7189C26.9627 18.4309 27.6747 18.7869 28.5307 18.7869ZM37.9732 21.6429V8.53888H40.3972L40.7092 13.4829L40.5052 12.4869C40.6012 11.7669 40.7892 11.0869 41.0692 10.4469C41.3572 9.79888 41.7852 9.27488 42.3532 8.87488C42.9212 8.47488 43.6812 8.27488 44.6332 8.27488C45.8732 8.27488 46.8332 8.66288 47.5132 9.43888C48.1932 10.2069 48.5332 11.3829 48.5332 12.9669V21.6429H45.7012V13.9509C45.7012 13.1989 45.6252 12.5949 45.4732 12.1389C45.3292 11.6829 45.0932 11.3549 44.7652 11.1549C44.4372 10.9469 44.0012 10.8429 43.4572 10.8429C42.8652 10.8429 42.3252 11.0189 41.8372 11.3709C41.3572 11.7149 41.0132 12.1069 40.8052 12.5469V21.6429H37.9732ZM63.6322 21.8829C62.3442 21.8829 61.2122 21.6269 60.2362 21.1149C59.2682 20.5949 58.5162 19.8149 57.9802 18.7749C57.4442 17.7349 57.1762 16.4309 57.1762 14.8629V4.17088H60.0802V14.8269C60.0802 15.6589 60.1642 16.3589 60.3322 16.9269C60.5082 17.4949 60.7522 17.9549 61.0642 18.3069C61.3842 18.6509 61.7602 18.8989 62.1922 19.0509C62.6322 19.2029 63.1162 19.2789 63.6442 19.2789C64.1322 19.2789 64.5802 19.2029 64.9882 19.0509C65.4042 18.8989 65.7642 18.6509 66.0682 18.3069C66.3802 17.9629 66.6202 17.5069 66.7882 16.9389C66.9642 16.3629 67.0522 15.6589 67.0522 14.8269V4.19488H69.9442V14.8629C69.9442 16.4309 69.6722 17.7349 69.1282 18.7749C68.5922 19.8149 67.8482 20.5949 66.8962 21.1149C65.9442 21.6269 64.8562 21.8829 63.6322 21.8829ZM80.0377 21.7869C79.1737 21.7869 78.4857 21.6429 77.9737 21.3549C77.4617 21.0669 77.0857 20.7309 76.8457 20.3469C76.6057 19.9549 76.4537 19.6109 76.3897 19.3149L75.4297 19.3629L76.5457 18.4149C76.6017 18.6149 76.7257 18.8109 76.9177 19.0029C77.1097 19.1869 77.3897 19.3389 77.7577 19.4589C78.1257 19.5709 78.5777 19.6269 79.1137 19.6269C80.0097 19.6269 80.7457 19.2789 81.3217 18.5829C81.9057 17.8869 82.1977 16.7229 82.1977 15.0909C82.1977 13.6829 81.9257 12.6029 81.3817 11.8509C80.8377 11.0909 80.1417 10.7109 79.2937 10.7109C78.6937 10.7109 78.1977 10.7949 77.8057 10.9629C77.4217 11.1309 77.1297 11.3269 76.9297 11.5509C76.7297 11.7749 76.6017 11.9749 76.5457 12.1509V11.2509C76.5617 10.9869 76.6297 10.6909 76.7497 10.3629C76.8777 10.0269 77.0817 9.70288 77.3617 9.39088C77.6497 9.07088 78.0257 8.81088 78.4897 8.61088C78.9617 8.40288 79.5457 8.29888 80.2417 8.29888C81.2977 8.29888 82.1857 8.58288 82.9057 9.15088C83.6257 9.71888 84.1697 10.4989 84.5377 11.4909C84.9137 12.4749 85.1017 13.5949 85.1017 14.8509C85.1017 16.0109 84.9577 17.0269 84.6697 17.8989C84.3897 18.7629 84.0057 19.4829 83.5177 20.0589C83.0377 20.6349 82.4977 21.0669 81.8977 21.3549C81.2977 21.6429 80.6777 21.7869 80.0377 21.7869ZM73.7257 26.4789V8.53888H76.5097L76.5457 10.3509V18.5229L76.3897 19.3149L76.5457 21.6549V26.4789H73.7257Z" fill="#6F59F4"/>
<path d="M88.7531 13.1639L88.7509 12.6524C88.7509 10.5267 88.8753 8.58877 89.0629 7.32544L89.2271 6.53984C89.3185 6.12377 89.4387 5.65002 89.5639 5.40818C90.0225 4.52353 90.9191 3.9762 91.8787 3.9762H91.9622C92.5878 3.99688 93.902 4.54581 93.902 4.5649C96.0166 5.45217 100.096 8.13001 101.98 10.0391L102.528 10.6122C102.671 10.7676 102.833 10.9514 102.933 11.0947C103.267 11.5371 103.434 12.0844 103.434 12.6317C103.434 13.2427 103.246 13.8107 102.892 14.2753L102.329 14.8824L102.203 15.012C100.493 16.8656 96.0292 19.8966 93.694 20.8242L93.3414 20.9594C92.9171 21.1114 92.3227 21.2928 91.9622 21.3095C91.5037 21.3095 91.0656 21.2029 90.6481 20.9929C90.1265 20.6986 89.7105 20.234 89.4804 19.6866C89.3339 19.3079 89.1038 18.1703 89.1038 18.1496C88.8929 17.0026 88.7706 15.1926 88.7531 13.1639ZM77.4336 12.6422C77.4336 11.4314 78.4058 10.4497 79.605 10.4497L84.9483 10.9223C85.889 10.9223 86.6517 11.6923 86.6517 12.6422C86.6517 13.5937 85.889 14.3622 84.9483 14.3622L79.605 14.8347C78.4058 14.8347 77.4336 13.853 77.4336 12.6422Z" fill="#6F59F4"/>
</svg>
