<svg width="99" height="20" viewBox="0 0 99 28" fill="none" xmlns="http://www.w3.org/2000/svg">
<path d="M2.54364 22.0007V4.55267H5.39964V20.8247L4.01964 19.3127H12.6716V22.0007H2.54364ZM20.3203 22.1807C19.1123 22.1807 18.0603 21.9207 17.1643 21.4007C16.2683 20.8807 15.5723 20.1167 15.0763 19.1087C14.5803 18.0927 14.3323 16.8487 14.3323 15.3767C14.3323 13.9847 14.5923 12.7847 15.1123 11.7767C15.6403 10.7687 16.3603 9.99667 17.2723 9.46067C18.1843 8.91667 19.2163 8.64467 20.3683 8.64467C21.6163 8.64467 22.6843 8.91667 23.5723 9.46067C24.4683 9.99667 25.1563 10.7687 25.6363 11.7767C26.1163 12.7847 26.3563 13.9847 26.3563 15.3767C26.3563 16.8487 26.0883 18.0927 25.5523 19.1087C25.0243 20.1167 24.3043 20.8807 23.3923 21.4007C22.4803 21.9207 21.4563 22.1807 20.3203 22.1807ZM20.3683 19.7687C21.2883 19.7687 22.0403 19.4247 22.6243 18.7367C23.2083 18.0487 23.5003 16.9287 23.5003 15.3767C23.5003 13.9367 23.2163 12.8567 22.6483 12.1367C22.0803 11.4167 21.3043 11.0567 20.3203 11.0567C19.4003 11.0567 18.6483 11.4127 18.0643 12.1247C17.4883 12.8367 17.2003 13.9207 17.2003 15.3767C17.2003 16.8567 17.4923 17.9607 18.0763 18.6887C18.6683 19.4087 19.4323 19.7687 20.3683 19.7687ZM34.9245 27.3527C33.8605 27.3527 32.9005 27.1767 32.0445 26.8247C31.1965 26.4807 30.5405 25.9527 30.0765 25.2407C29.6125 24.5287 29.4325 23.6367 29.5365 22.5647H32.2725C32.2645 23.0207 32.3205 23.4287 32.4405 23.7887C32.5605 24.1567 32.8125 24.4487 33.1965 24.6647C33.5805 24.8807 34.1645 24.9887 34.9485 24.9887C35.6285 24.9887 36.1485 24.8927 36.5085 24.7007C36.8765 24.5087 37.1245 24.2167 37.2525 23.8247C37.3805 23.4327 37.4445 22.9247 37.4445 22.3007V18.7487C37.3725 19.1247 37.2165 19.5207 36.9765 19.9367C36.7365 20.3527 36.3645 20.7047 35.8605 20.9927C35.3565 21.2727 34.6765 21.4127 33.8205 21.4127C33.0445 21.4127 32.3525 21.2407 31.7445 20.8967C31.1365 20.5527 30.6205 20.0887 30.1965 19.5047C29.7725 18.9207 29.4485 18.2647 29.2245 17.5367C29.0085 16.8007 28.9005 16.0407 28.9005 15.2567C28.9005 13.8007 29.1405 12.5847 29.6205 11.6087C30.1085 10.6327 30.7365 9.89667 31.5045 9.40067C32.2725 8.90467 33.0845 8.65667 33.9405 8.65667C34.7005 8.65667 35.3125 8.76067 35.7765 8.96867C36.2485 9.17667 36.6165 9.42867 36.8805 9.72467C37.1445 10.0207 37.3365 10.3127 37.4565 10.6007L37.4685 8.90867H40.2405V22.2767C40.2405 23.4607 40.0085 24.4247 39.5445 25.1687C39.0885 25.9127 38.4605 26.4567 37.6605 26.8007C36.8605 27.1527 35.9485 27.3367 34.9245 27.3527ZM34.7925 19.1447C35.3925 19.1447 35.8765 19.0647 36.2445 18.9047C36.6125 18.7367 36.8925 18.5407 37.0845 18.3167C37.2765 18.0847 37.3965 17.8847 37.4445 17.7167V12.2327C37.3645 12.0407 37.2165 11.8527 37.0005 11.6687C36.7845 11.4847 36.5005 11.3327 36.1485 11.2127C35.7965 11.0927 35.3645 11.0327 34.8525 11.0327C33.9645 11.0327 33.2365 11.3607 32.6685 12.0167C32.1005 12.6727 31.8165 13.7007 31.8165 15.1007C31.8165 16.3727 32.0965 17.3647 32.6565 18.0767C33.2245 18.7887 33.9365 19.1447 34.7925 19.1447ZM49.0046 22.0007V8.89667H51.8726L51.8366 22.0007H49.0046ZM50.4566 6.96467C49.9366 6.96467 49.4966 6.78467 49.1366 6.42467C48.7766 6.05667 48.5966 5.58867 48.5966 5.02067C48.5966 4.46067 48.7766 4.00467 49.1366 3.65267C49.4966 3.30067 49.9366 3.12467 50.4566 3.12467C50.9606 3.12467 51.3926 3.30067 51.7526 3.65267C52.1206 4.00467 52.3046 4.46067 52.3046 5.02067C52.3046 5.58867 52.1206 6.05667 51.7526 6.42467C51.3926 6.78467 50.9606 6.96467 50.4566 6.96467ZM55.906 22.0007V8.89667H58.33L58.642 13.8407L58.438 12.8447C58.534 12.1247 58.722 11.4447 59.002 10.8047C59.29 10.1567 59.718 9.63267 60.286 9.23267C60.854 8.83267 61.614 8.63267 62.566 8.63267C63.806 8.63267 64.766 9.02067 65.446 9.79667C66.126 10.5647 66.466 11.7407 66.466 13.3247V22.0007H63.634V14.3087C63.634 13.5567 63.558 12.9527 63.406 12.4967C63.262 12.0407 63.026 11.7127 62.698 11.5127C62.37 11.3047 61.934 11.2007 61.39 11.2007C60.798 11.2007 60.258 11.3767 59.77 11.7287C59.29 12.0727 58.946 12.4647 58.738 12.9047V22.0007H55.906Z" fill="#6F59F4"/>
<path d="M83.6277 13.5217L83.6255 13.0102C83.6255 10.8845 83.75 8.94655 83.9375 7.68323L84.1018 6.89763C84.1932 6.48156 84.3133 6.00781 84.4386 5.76597C84.8971 4.88132 85.7937 4.33398 86.7533 4.33398H86.8369C87.4624 4.35467 88.7766 4.90359 88.7766 4.92269C90.8912 5.80996 94.9709 8.4878 96.8551 10.3969L97.4027 10.97C97.546 11.1254 97.7071 11.3092 97.8071 11.4525C98.1412 11.8948 98.3082 12.4422 98.3082 12.9895C98.3082 13.6005 98.1207 14.1685 97.7662 14.6331L97.2036 15.2402L97.0776 15.3698C95.3679 17.2234 90.9038 20.2544 88.5686 21.182L88.216 21.3172C87.7917 21.4692 87.1973 21.6506 86.8369 21.6673C86.3783 21.6673 85.9403 21.5607 85.5227 21.3507C85.0011 21.0563 84.5851 20.5917 84.3551 20.0444C84.2085 19.6657 83.9785 18.5281 83.9785 18.5074C83.7676 17.3604 83.6453 15.5504 83.6277 13.5217ZM72.3082 13C72.3082 11.7892 73.2805 10.8075 74.4796 10.8075L79.8229 11.28C80.7636 11.28 81.5263 12.0501 81.5263 13C81.5263 13.9515 80.7636 14.72 79.8229 14.72L74.4796 15.1925C73.2805 15.1925 72.3082 14.2108 72.3082 13Z" fill="#6F59F4"/>
</svg>
