<svg width="221" height="188" viewBox="0 0 221 188" fill="none" xmlns="http://www.w3.org/2000/svg">
<circle cx="139.5" cy="139.5" r="139.5" fill="#6F59F4"/>
<path d="M114.557 118.556L114.552 117.356C114.552 112.369 114.844 107.822 115.284 104.858L115.669 103.015C115.884 102.039 116.166 100.927 116.46 100.36C117.535 98.2841 119.639 97 121.89 97L122.086 97C123.554 97.0485 126.637 98.3364 126.637 98.3812C131.599 100.463 141.17 106.745 145.591 111.224L146.875 112.569C147.212 112.934 147.59 113.365 147.824 113.701C148.608 114.739 149 116.023 149 117.307C149 118.741 148.56 120.073 147.728 121.163L146.408 122.588L146.113 122.892C142.102 127.241 131.628 134.352 126.149 136.528L125.322 136.845C124.327 137.202 122.932 137.627 122.086 137.667C121.011 137.667 119.983 137.417 119.003 136.924C117.779 136.233 116.803 135.143 116.264 133.859C115.92 132.971 115.38 130.302 115.38 130.253C114.885 127.562 114.598 123.315 114.557 118.556ZM88 117.332C88 114.491 90.281 112.188 93.0944 112.188L105.631 113.297C107.838 113.297 109.627 115.103 109.627 117.332C109.627 119.564 107.838 121.367 105.631 121.367L93.0944 122.476C90.281 122.476 88 120.173 88 117.332Z" fill="#FF6525" fill-opacity="0.9"/>
</svg>
