<svg width="131" height="139" viewBox="0 0 131 139" fill="none" xmlns="http://www.w3.org/2000/svg">
<g filter="url(#filter0_d_35_226)">
<path d="M76.111 94.32H52.269C51.221 94.32 50.304 93.403 50.304 92.355V83.84C50.304 80.303 48.47 77.028 45.195 74.932C34.977 68.513 28.82 57.247 28.82 45.064C28.82 35.501 32.619 26.593 39.3 19.912C46.112 13.231 55.02 9.563 64.583 9.694C83.185 9.956 98.512 24.497 99.56 42.968C100.346 55.806 94.058 67.989 83.316 74.932C80.041 77.028 78.076 80.565 78.076 84.233V92.355C78.076 93.403 77.159 94.32 76.111 94.32ZM54.234 90.39H74.146V84.233C74.146 79.124 76.766 74.539 81.22 71.657C90.783 65.5 96.285 54.627 95.63 43.23C94.713 26.855 81.089 13.886 64.583 13.624C56.068 13.493 48.077 16.768 42.051 22.663C36.025 28.689 32.75 36.549 32.75 45.064C32.75 55.937 38.252 65.893 47.422 71.657C51.745 74.408 54.365 78.993 54.365 83.84V90.39H54.234Z" fill="#EF912D"/>
<path d="M74.67 105.455H53.71C49.518 105.455 46.112 102.049 46.112 97.857C46.112 93.665 49.518 90.39 53.71 90.39H74.67C78.862 90.39 82.268 93.796 82.268 97.988C82.268 102.18 78.862 105.455 74.67 105.455ZM53.71 94.32C51.745 94.32 50.042 95.892 50.042 97.988C50.042 100.084 51.614 101.656 53.71 101.656H74.67C76.635 101.656 78.338 100.084 78.338 97.988C78.338 95.892 76.635 94.32 74.67 94.32H53.71Z" fill="#EF912D"/>
<path d="M64.19 121.306C59.081 121.306 54.496 118.031 52.662 113.184C52.531 112.922 52.531 112.791 52.531 112.529V105.062C52.531 104.014 53.448 103.097 54.496 103.097C55.544 103.097 56.461 104.014 56.461 105.062V112.136C57.771 115.28 60.784 117.245 64.19 117.245C67.596 117.245 70.609 115.149 71.919 112.136V105.062C71.919 104.014 72.836 103.097 73.884 103.097C74.932 103.097 75.849 104.014 75.849 105.062V112.66C75.849 112.922 75.849 113.053 75.718 113.315C73.884 118.162 69.299 121.306 64.19 121.306Z" fill="#EF912D"/>
<path d="M69.168 93.141C68.644 93.141 68.12 92.748 68.12 92.093V69.299H60.26V92.224C60.26 92.748 59.867 93.272 59.212 93.272C58.557 93.272 58.164 92.879 58.164 92.224V69.299H53.71C50.042 69.299 47.16 66.417 47.16 62.749C47.16 59.081 50.042 56.199 53.71 56.199C57.378 56.199 60.26 59.081 60.26 62.749V67.334H68.12V62.749C68.12 59.081 71.002 56.199 74.67 56.199C78.338 56.199 81.22 59.081 81.22 62.749C81.22 66.417 78.338 69.299 74.67 69.299H70.085V92.224C70.085 92.748 69.692 93.141 69.168 93.141ZM70.085 67.334H74.67C77.159 67.334 79.255 65.238 79.255 62.749C79.255 60.26 77.29 58.033 74.67 58.033C72.181 58.033 70.085 60.129 70.085 62.618V67.334ZM53.71 58.033C51.221 58.033 49.125 60.129 49.125 62.618C49.125 65.107 51.221 67.203 53.71 67.203H58.295V62.618C58.295 60.129 56.199 58.033 53.71 58.033Z" fill="#EF912D"/>
<path d="M60.784 108.468H54.496C53.972 108.468 53.448 108.075 53.448 107.42C53.448 106.765 53.841 106.372 54.496 106.372H60.784C61.308 106.372 61.832 106.765 61.832 107.42C61.832 108.075 61.308 108.468 60.784 108.468Z" fill="#EF912D"/>
<path d="M60.784 111.088H54.496C53.972 111.088 53.448 110.695 53.448 110.04C53.448 109.385 53.841 108.992 54.496 108.992H60.784C61.308 108.992 61.832 109.385 61.832 110.04C61.832 110.695 61.308 111.088 60.784 111.088Z" fill="#EF912D"/>
<path d="M73.884 108.468H67.596C67.072 108.468 66.548 108.075 66.548 107.42C66.548 106.765 66.941 106.372 67.596 106.372H73.884C74.408 106.372 74.932 106.765 74.932 107.42C74.932 108.075 74.408 108.468 73.884 108.468Z" fill="#EF912D"/>
<path d="M73.884 111.088H67.596C67.072 111.088 66.548 110.695 66.548 110.04C66.548 109.385 66.941 108.992 67.596 108.992H73.884C74.408 108.992 74.932 109.385 74.932 110.04C74.932 110.695 74.408 111.088 73.884 111.088Z" fill="#EF912D"/>
</g>
<defs>
<filter id="filter0_d_35_226" x="-6" y="-3" width="151" height="151" filterUnits="userSpaceOnUse" color-interpolation-filters="sRGB">
<feFlood flood-opacity="0" result="BackgroundImageFix"/>
<feColorMatrix in="SourceAlpha" type="matrix" values="0 0 0 0 0 0 0 0 0 0 0 0 0 0 0 0 0 0 127 0" result="hardAlpha"/>
<feOffset dx="4" dy="7"/>
<feGaussianBlur stdDeviation="5"/>
<feComposite in2="hardAlpha" operator="out"/>
<feColorMatrix type="matrix" values="0 0 0 0 0.174022 0 0 0 0 0.0911111 0 0 0 0 0.683333 0 0 0 0.42 0"/>
<feBlend mode="normal" in2="BackgroundImageFix" result="effect1_dropShadow_35_226"/>
<feBlend mode="normal" in="SourceGraphic" in2="effect1_dropShadow_35_226" result="shape"/>
</filter>
</defs>
</svg>
