<svg width="243" height="188" viewBox="0 0 243 188" fill="none" xmlns="http://www.w3.org/2000/svg">
<circle cx="103.501" cy="139.501" r="139.5" transform="rotate(-180 103.501 139.501)" fill="#6F59F4"/>
<path d="M128.444 160.446L128.449 161.646C128.449 166.633 128.157 171.18 127.717 174.144L127.331 175.987C127.117 176.963 126.835 178.074 126.541 178.642C125.465 180.717 123.362 182.001 121.11 182.001L120.914 182.001C119.447 181.953 116.364 180.665 116.364 180.62C111.402 178.538 101.831 172.256 97.4102 167.777L96.1256 166.432C95.7892 166.068 95.4112 165.636 95.1766 165.3C94.3929 164.262 94.001 162.978 94.001 161.694C94.001 160.26 94.441 158.928 95.2728 157.838L96.5926 156.413L96.8884 156.109C100.9 151.761 111.373 144.649 116.852 142.473L117.679 142.156C118.674 141.799 120.069 141.374 120.915 141.335C121.991 141.335 123.018 141.585 123.998 142.078C125.222 142.768 126.198 143.858 126.737 145.142C127.081 146.031 127.621 148.7 127.621 148.748C128.116 151.44 128.403 155.686 128.444 160.446ZM155.001 161.67C155.001 164.511 152.72 166.814 149.907 166.814L137.37 165.705C135.163 165.705 133.374 163.898 133.374 161.67C133.374 159.437 135.163 157.634 137.37 157.634L149.907 156.526C152.72 156.526 155.001 158.829 155.001 161.67Z" fill="#FF6525" fill-opacity="0.9"/>
</svg>
