<svg width="422" height="383" viewBox="0 0 422 383" fill="none" xmlns="http://www.w3.org/2000/svg">
<path d="M-76.7331 -148.013C-24.1909 -189.246 29.5347 -201.493 83.1776 -184.491C173.303 -155.261 241.419 -46.0121 266.474 43.7675C303.078 172.638 232.686 229.338 229.515 231.826C226.344 234.314 154.511 289.227 35.4694 225.05C-47.5632 180.769 -140.498 90.2674 -148.732 -2.49787C-153.457 -57.8889 -129.275 -106.78 -76.7331 -148.013ZM216.184 215.292C218.449 213.515 278.156 163.741 246.029 49.5968C222.405 -34.7391 159.334 -137.732 76.7023 -164.088C30.6462 -179.018 -16.7485 -168.09 -63.4023 -131.478C-110.056 -94.8665 -131.51 -51.7646 -127.125 -4.13273C-119.683 81.2288 -32.1525 165.027 45.8256 206.708C151.33 263.268 213.467 217.425 216.184 215.292Z" fill="#6E5FC7"/>
<path d="M152.672 -19.4145L171.232 -30.332C208.661 30.7671 216.33 67.7961 218.008 113.904L196.493 114.737C194.99 70.6801 187.671 37.7542 152.672 -19.4145Z" fill="#6E5FC7"/>
<path d="M-121.668 -112.02C-114.873 -117.352 -108.172 -121.881 -100.204 -126.675C-95.7671 -129.427 -89.7141 -128.34 -86.4715 -124.319C-83.2289 -120.297 -83.5172 -114.234 -87.2334 -110.588C-120.052 -76.0779 -133.177 -37.3227 -126.157 5.32256C-112.559 87.3123 -27.8185 166.733 45.4654 206.261C87.342 228.849 127.541 237.431 164.703 233.075C168.862 232.729 172.382 234.344 174.904 237.472C176.973 240.956 177.323 245.059 175.234 248.888C148.53 294.65 113.149 308.554 109.257 310.148C103.647 312.362 18.1534 339.325 -72.5992 244.193C-134.333 179.549 -191.073 75.2359 -178.709 -13.9948C-172.449 -53.9282 -153.827 -86.7827 -121.668 -112.02ZM145.205 255.672C110.226 255.397 73.4652 245.576 35.4695 225.05C-44.8556 182.292 -132.386 98.4939 -147.229 9.45581C-150.606 -11.2422 -149.916 -31.4831 -145.252 -50.4647C-151.614 -38.176 -155.629 -24.8107 -157.297 -10.3688C-168.827 71.6409 -115.052 169.525 -57.0136 230.503C25.7199 316.606 99.3649 292.375 101.99 291.045C102.443 290.689 124.431 282.189 145.205 255.672Z" fill="#6E5FC7"/>
<path d="M-31.0777 -183.111C1.08164 -208.349 37.7188 -218.86 78.9265 -215.447C169.474 -207.707 260.546 -129.606 310.05 -55.365C383.23 52.828 337.369 128.947 334.28 134.289C332.283 137.315 310.14 168.555 258.937 183.931C254.685 185.078 250.712 183.819 247.737 181.046C244.762 178.274 244.051 173.724 245.688 170.25C258.711 135.954 258.464 95.2889 246.029 49.5968C223.476 -29.7423 164.553 -129.424 86.1833 -160.584C45.6449 -176.925 4.41654 -173.026 -37.0488 -149.241C-41.4856 -146.489 -47.5386 -147.576 -50.7812 -151.597C-54.0238 -155.619 -53.7355 -161.682 -50.0193 -165.328C-43.853 -172.356 -37.419 -178.135 -31.0777 -183.111ZM299.012 140.077C310.789 130.836 316.235 122.914 316.688 122.558C318.232 119.887 359.09 54.9909 292.663 -43.9092C245.496 -113.418 160.919 -187.131 77.3306 -194.495C62.2393 -195.785 48.1363 -194.932 35.0214 -191.936C54.8172 -192.149 74.9629 -188.259 94.6453 -180.358C179.696 -146.415 242.314 -43.0668 266.474 43.7675C277.838 84.4628 279.629 122.456 272.031 156.144C283.345 150.914 292.218 145.409 299.012 140.077Z" fill="#6E5FC7"/>
<g filter="url(#filter0_d_535_178)">
<path d="M74.8817 88.0642L51.0397 88.0642C49.9917 88.0642 49.0747 87.1472 49.0747 86.0992L49.0747 77.5842C49.0747 74.0472 47.2407 70.7722 43.9657 68.6762C33.7477 62.2572 27.5907 50.9912 27.5907 38.8082C27.5907 29.2452 31.3897 20.3372 38.0707 13.6562C44.8827 6.97521 53.7907 3.30721 63.3537 3.43821C81.9557 3.70021 97.2827 18.2412 98.3307 36.7122C99.1167 49.5502 92.8287 61.7332 82.0867 68.6762C78.8117 70.7722 76.8467 74.3092 76.8467 77.9772L76.8467 86.0992C76.8467 87.1472 75.9297 88.0642 74.8817 88.0642ZM53.0047 84.1342L72.9167 84.1342L72.9167 77.9772C72.9167 72.8682 75.5367 68.2832 79.9907 65.4012C89.5537 59.2442 95.0557 48.3712 94.4007 36.9742C93.4837 20.5992 79.8597 7.63021 63.3537 7.36821C54.8387 7.23721 46.8477 10.5122 40.8217 16.4072C34.7957 22.4332 31.5207 30.2932 31.5207 38.8082C31.5207 49.6812 37.0227 59.6372 46.1927 65.4012C50.5157 68.1522 53.1357 72.7372 53.1357 77.5842L53.1357 84.1342L53.0047 84.1342Z" fill="#EF912D"/>
<path d="M73.4407 99.1992L52.4807 99.1992C48.2887 99.1992 44.8827 95.7932 44.8827 91.6012C44.8827 87.4092 48.2887 84.1342 52.4807 84.1342L73.4407 84.1342C77.6327 84.1342 81.0387 87.5402 81.0387 91.7322C81.0387 95.9242 77.6327 99.1992 73.4407 99.1992ZM52.4807 88.0642C50.5157 88.0642 48.8127 89.6362 48.8127 91.7322C48.8127 93.8282 50.3847 95.4002 52.4807 95.4002L73.4407 95.4002C75.4057 95.4002 77.1087 93.8282 77.1087 91.7322C77.1087 89.6362 75.4057 88.0642 73.4407 88.0642L52.4807 88.0642Z" fill="#EF912D"/>
<path d="M62.9607 115.05C57.8517 115.05 53.2667 111.775 51.4327 106.928C51.3017 106.666 51.3017 106.535 51.3017 106.273L51.3017 98.8062C51.3017 97.7582 52.2187 96.8412 53.2667 96.8412C54.3147 96.8412 55.2317 97.7582 55.2317 98.8062L55.2317 105.88C56.5417 109.024 59.5547 110.989 62.9607 110.989C66.3667 110.989 69.3797 108.893 70.6897 105.88L70.6897 98.8062C70.6897 97.7582 71.6067 96.8412 72.6547 96.8412C73.7027 96.8412 74.6197 97.7582 74.6197 98.8062L74.6197 106.404C74.6197 106.666 74.6197 106.797 74.4887 107.059C72.6547 111.906 68.0697 115.05 62.9607 115.05Z" fill="#EF912D"/>
<path d="M67.9387 86.8852C67.4147 86.8852 66.8907 86.4922 66.8907 85.8372L66.8907 63.0432L59.0307 63.0432L59.0307 85.9682C59.0307 86.4922 58.6377 87.0162 57.9827 87.0162C57.3277 87.0162 56.9347 86.6232 56.9347 85.9682L56.9347 63.0432L52.4807 63.0432C48.8127 63.0432 45.9307 60.1612 45.9307 56.4932C45.9307 52.8252 48.8127 49.9432 52.4807 49.9432C56.1487 49.9432 59.0307 52.8252 59.0307 56.4932L59.0307 61.0782L66.8907 61.0782L66.8907 56.4932C66.8907 52.8252 69.7727 49.9432 73.4407 49.9432C77.1087 49.9432 79.9907 52.8252 79.9907 56.4932C79.9907 60.1612 77.1087 63.0432 73.4407 63.0432L68.8557 63.0432L68.8557 85.9682C68.8557 86.4922 68.4627 86.8852 67.9387 86.8852ZM68.8557 61.0782L73.4407 61.0782C75.9297 61.0782 78.0257 58.9822 78.0257 56.4932C78.0257 54.0042 76.0607 51.7772 73.4407 51.7772C70.9517 51.7772 68.8557 53.8732 68.8557 56.3622L68.8557 61.0782ZM52.4807 51.7772C49.9917 51.7772 47.8957 53.8732 47.8957 56.3622C47.8957 58.8512 49.9917 60.9472 52.4807 60.9472L57.0657 60.9472L57.0657 56.3622C57.0657 53.8732 54.9697 51.7772 52.4807 51.7772Z" fill="#EF912D"/>
<path d="M59.5547 102.212L53.2667 102.212C52.7427 102.212 52.2187 101.819 52.2187 101.164C52.2187 100.509 52.6117 100.116 53.2667 100.116L59.5547 100.116C60.0787 100.116 60.6027 100.509 60.6027 101.164C60.6027 101.819 60.0787 102.212 59.5547 102.212Z" fill="#EF912D"/>
<path d="M59.5547 104.832L53.2667 104.832C52.7427 104.832 52.2187 104.439 52.2187 103.784C52.2187 103.129 52.6117 102.736 53.2667 102.736L59.5547 102.736C60.0787 102.736 60.6027 103.129 60.6027 103.784C60.6027 104.439 60.0787 104.832 59.5547 104.832Z" fill="#EF912D"/>
<path d="M72.6547 102.212L66.3667 102.212C65.8427 102.212 65.3187 101.819 65.3187 101.164C65.3187 100.509 65.7117 100.116 66.3667 100.116L72.6547 100.116C73.1787 100.116 73.7027 100.509 73.7027 101.164C73.7027 101.819 73.1787 102.212 72.6547 102.212Z" fill="#EF912D"/>
<path d="M72.6547 104.832L66.3667 104.832C65.8427 104.832 65.3187 104.439 65.3187 103.784C65.3187 103.129 65.7117 102.736 66.3667 102.736L72.6547 102.736C73.1787 102.736 73.7027 103.129 73.7027 103.784C73.7027 104.439 73.1787 104.832 72.6547 104.832Z" fill="#EF912D"/>
</g>
<defs>
<filter id="filter0_d_535_178" x="-7.22931" y="-9.25578" width="151" height="151" filterUnits="userSpaceOnUse" color-interpolation-filters="sRGB">
<feFlood flood-opacity="0" result="BackgroundImageFix"/>
<feColorMatrix in="SourceAlpha" type="matrix" values="0 0 0 0 0 0 0 0 0 0 0 0 0 0 0 0 0 0 127 0" result="hardAlpha"/>
<feOffset dx="4" dy="7"/>
<feGaussianBlur stdDeviation="5"/>
<feComposite in2="hardAlpha" operator="out"/>
<feColorMatrix type="matrix" values="0 0 0 0 0.174022 0 0 0 0 0.0911111 0 0 0 0 0.683333 0 0 0 0.42 0"/>
<feBlend mode="normal" in2="BackgroundImageFix" result="effect1_dropShadow_535_178"/>
<feBlend mode="normal" in="SourceGraphic" in2="effect1_dropShadow_535_178" result="shape"/>
</filter>
</defs>
</svg>
