<svg width="230" height="211" viewBox="0 0 230 211" fill="none" xmlns="http://www.w3.org/2000/svg">
<circle cx="89.1464" cy="140.146" r="139.5" transform="rotate(-179.778 89.1464 140.146)" fill="#6F59F4"/>
<path d="M114.008 161.187L114.008 162.387C113.989 167.374 113.679 171.92 113.228 174.882L112.836 176.724C112.617 177.699 112.331 178.809 112.035 179.376C110.951 181.447 108.843 182.723 106.591 182.714L106.395 182.714C104.928 182.659 101.85 181.36 101.85 181.315C96.8966 179.214 87.3495 172.894 82.9462 168.398L81.6668 167.048C81.3318 166.683 80.9555 166.25 80.7222 165.913C79.9425 164.872 79.5556 163.586 79.5606 162.302C79.5661 160.869 80.0112 159.538 80.8472 158.451L82.1726 157.032L82.4695 156.729C86.4975 152.396 96.9983 145.325 102.486 143.17L103.314 142.856C104.311 142.503 105.707 142.083 106.553 142.047C107.629 142.051 108.655 142.305 109.633 142.802C110.854 143.497 111.826 144.591 112.361 145.877C112.701 146.767 113.23 149.438 113.23 149.487C113.715 152.18 113.985 156.427 114.008 161.187ZM140.56 162.514C140.549 165.355 138.259 167.649 135.446 167.638L122.914 166.481C120.707 166.472 118.925 164.659 118.933 162.43C118.942 160.198 120.738 158.402 122.945 158.41L135.486 157.35C138.299 157.361 140.571 159.673 140.56 162.514Z" fill="#FF6525" fill-opacity="0.9"/>
</svg>
