<svg width="242" height="469" viewBox="0 0 242 469" fill="none" xmlns="http://www.w3.org/2000/svg">
<path d="M319.176 251.75C318.034 250.661 316.806 249.41 316.429 249C316.052 248.59 314.048 246.616 311.948 244.62C309.804 242.636 306.497 239.475 304.568 237.62C302.629 235.722 300.647 233.834 300.162 233.359C299.678 232.885 297.695 230.997 295.756 229.099C293.828 227.243 290.521 224.083 288.42 222.087C286.319 220.092 283.012 216.931 281.084 215.076C279.155 213.221 277.173 211.333 276.688 210.859C276.204 210.384 274.577 208.82 273.079 207.407C271.571 205.951 269.944 204.387 269.46 203.912C267.898 202.424 263.19 197.872 262.339 197.03C261.919 196.631 259.818 194.636 257.717 192.64C255.617 190.645 252.309 187.484 250.381 185.629C248.442 183.731 246.46 181.843 245.975 181.368C245.49 180.894 243.863 179.33 242.366 177.917C240.869 176.504 239.242 174.94 238.757 174.465C238.283 174.034 236.29 172.103 234.362 170.248C231.098 167.076 218.817 155.298 215.165 151.857C213.807 150.638 213.139 150.346 211.016 150.28C209.625 150.215 208.04 150.289 207.48 150.429C206.962 150.558 205.033 150.718 203.308 150.782C199.815 150.92 192.7 152.511 192.506 153.201C192.43 153.448 192.699 153.794 193.119 154.009C193.54 154.225 193.949 154.581 194.003 154.797C194.057 155.012 195.242 156.274 196.674 157.612C201.986 162.563 204.636 165.109 205.099 165.68C205.357 165.982 207.339 167.87 209.44 169.865C211.541 171.861 214.794 174.989 216.658 176.769C218.532 178.592 221.775 181.677 223.876 183.672C225.977 185.668 229.607 189.206 232.009 191.492C234.369 193.79 236.62 196.023 237.029 196.378C237.45 196.778 238.893 198.158 240.304 199.41C241.673 200.672 242.814 201.761 242.847 201.89C242.879 202.02 244.333 203.444 246.068 205.072C247.845 206.69 250.075 208.837 251.045 209.786C252.025 210.778 253.232 211.943 253.716 212.418C254.19 212.849 256.054 214.629 257.821 216.387C259.577 218.102 261.915 220.314 262.938 221.295C263.994 222.223 266.278 224.402 267.98 226.084C269.725 227.756 274.799 232.675 279.259 236.968C283.719 241.261 288.965 246.32 290.893 248.175C292.822 250.03 294.804 251.918 295.289 252.393C295.774 252.867 297.4 254.431 298.898 255.844C300.406 257.3 302.033 258.864 302.517 259.339C303.002 259.814 304.209 260.979 305.189 261.971C306.158 262.92 308.378 265.023 310.058 266.62C311.782 268.206 313.301 269.705 313.441 269.899C314.216 270.988 319.097 275.131 319.485 275.034C319.873 274.937 320.479 271.305 321.108 265.01C321.368 262.38 321.567 254.91 321.374 254.134C321.32 253.918 320.318 252.84 319.176 251.75Z" fill="#978AE6"/>
<path d="M310.636 290.982C308.88 289.267 305.82 286.365 303.892 284.51C301.953 282.611 299.971 280.724 299.486 280.249C299.001 279.774 297.019 277.887 295.08 275.988C293.152 274.133 289.844 270.973 287.744 268.977C285.6 266.992 283.542 264.986 283.122 264.587C282.443 263.886 278.533 260.143 276.001 257.705C272.931 254.761 267.738 249.734 267.06 249.033C266.629 248.591 264.948 246.994 263.343 245.517C261.781 244.028 257.224 239.713 253.314 235.971C249.403 232.228 245.73 228.7 245.18 228.15C244.588 227.611 243.909 226.91 243.65 226.608C243.392 226.306 242.067 225.033 240.666 223.825C239.255 222.574 238.102 221.441 238.07 221.312C238.038 221.182 236.831 220.017 235.398 218.68C232.102 215.563 229.538 213.179 228.741 212.37C227.394 211.011 220.887 204.755 217.246 201.357C215.145 199.361 213.099 197.398 212.765 196.978C212.388 196.568 210.384 194.594 208.24 192.609C206.139 190.614 202.897 187.529 201.022 185.706C199.159 183.926 195.905 180.798 193.805 178.802C191.704 176.807 188.397 173.646 186.468 171.791C184.54 169.936 182.547 168.005 182.073 167.574C181.588 167.099 179.595 165.168 177.656 163.27C175.749 161.318 173.756 159.57 173.239 159.333C172.237 158.804 170.544 159.363 165.347 162.033C159.902 164.811 158.521 165.705 158.23 166.556C157.916 167.504 157.227 166.76 167.03 176.134C175.756 184.493 176.101 184.774 177.081 185.766C178.913 187.6 185.182 193.64 188.727 197.016C190.827 199.012 194.135 202.172 196.063 204.027C198.002 205.926 199.984 207.813 200.469 208.288C200.954 208.763 202.947 210.693 204.875 212.549C206.804 214.404 212.158 219.528 216.779 223.918C221.358 228.319 225.344 232.18 225.602 232.482C225.861 232.784 227.186 234.057 228.597 235.308C230.008 236.559 231.15 237.649 231.182 237.778C231.215 237.908 232.669 239.331 234.403 240.96C236.181 242.578 238.411 244.725 239.381 245.674C240.361 246.666 241.567 247.831 242.052 248.306C242.537 248.78 244.164 250.344 245.661 251.758C247.158 253.171 248.785 254.735 249.27 255.209C249.744 255.641 251.737 257.571 253.665 259.427C255.604 261.325 260.958 266.449 265.537 270.85C270.158 275.24 274.144 279.101 274.403 279.403C274.661 279.705 275.986 280.978 277.398 282.229C278.809 283.481 279.951 284.57 279.983 284.699C280.016 284.829 281.47 286.253 283.204 287.881C284.982 289.499 287.212 291.646 288.181 292.595C289.162 293.587 290.368 294.752 290.853 295.227C291.338 295.702 292.964 297.266 294.462 298.679C295.959 300.092 297.586 301.656 298.071 302.13C298.545 302.562 300.549 304.536 302.488 306.434C304.427 308.332 306.388 309.951 306.819 310.026C307.39 310.113 308.026 309.359 309.105 307.441C311.426 303.152 314.373 295.867 314.137 294.918C313.975 294.455 312.435 292.686 310.636 290.982Z" fill="#978AE6"/>
<path d="M294.242 322.781C293.025 321.573 291.15 319.75 290.019 318.704C288.898 317.701 287.972 316.741 287.94 316.611C287.918 316.525 286.766 315.393 285.397 314.131C283.986 312.879 282.543 311.499 282.122 311.099C281.713 310.743 279.462 308.511 277.102 306.213C274.743 303.916 271.447 300.798 269.841 299.321C268.236 297.843 266.61 296.279 266.276 295.858C265.899 295.448 263.895 293.474 261.794 291.479C259.65 289.494 256.343 286.334 254.415 284.478C252.476 282.58 250.493 280.692 250.009 280.218C249.524 279.743 247.531 277.812 245.603 275.957C243.674 274.102 240.367 270.941 238.266 268.946C236.166 266.95 234.065 264.955 233.623 264.47C233.192 264.027 229.573 260.533 225.598 256.714C216.753 248.247 217.302 248.797 213.069 244.676C211.14 242.821 207.833 239.661 205.689 237.676C203.589 235.68 201.585 233.707 201.208 233.297C200.874 232.876 198.827 230.913 196.726 228.917C194.583 226.933 191.275 223.772 189.347 221.917C187.419 220.062 185.426 218.131 184.941 217.656C180.664 213.547 178.499 211.476 177.648 210.634C177.098 210.084 174.998 208.089 173.015 206.201C170.99 204.324 167.791 201.229 165.862 199.373C163.923 197.475 161.876 195.512 161.338 195.005C160.745 194.465 160.002 193.689 159.625 193.279C159.248 192.869 157.201 190.906 155.1 188.91C153 186.915 149.746 183.787 147.872 181.964C142.658 176.851 143.164 176.862 138.731 181.311C134.934 185.19 131.526 188.971 131.612 189.316C131.73 189.79 134.014 192.152 137.429 195.378C139.454 197.255 142.341 200.016 143.806 201.483C145.315 202.939 146.952 204.546 147.426 204.978C147.911 205.452 149.904 207.383 151.875 209.228C153.814 211.126 157.122 214.286 159.179 216.293C161.28 218.288 164.533 221.416 166.397 223.196C168.271 225.019 171.514 228.104 173.615 230.099C175.759 232.084 177.762 234.058 178.139 234.468C178.516 234.878 179.26 235.654 179.863 236.237C180.412 236.787 185.217 241.36 190.463 246.419C195.742 251.424 200.741 256.224 201.624 257.012C202.464 257.81 203.38 258.727 203.639 259.029C203.897 259.331 205.836 261.229 207.98 263.214C210.081 265.209 213.334 268.337 215.198 270.117C217.072 271.94 220.315 275.025 222.416 277.02C224.516 279.016 228.19 282.543 230.549 284.841C234.481 288.67 246.633 300.298 250.576 303.987C251.481 304.86 252.224 305.637 252.245 305.723C252.278 305.853 253.474 306.974 254.939 308.258C256.415 309.585 257.621 310.75 257.653 310.879C257.686 311.009 259.14 312.432 260.874 314.061C262.652 315.679 264.817 317.75 265.733 318.667C266.649 319.584 269.116 321.946 271.216 323.942C273.317 325.937 276.624 329.098 278.563 330.996C280.492 332.851 282.539 334.814 283.088 335.364C283.67 335.861 284.338 336.519 284.542 336.788C285.253 337.619 286.191 336.973 289.956 333.148C294.454 328.591 296.644 325.984 296.547 325.413C296.493 325.197 295.459 323.989 294.242 322.781Z" fill="#978AE6"/>
<path d="M269.111 346.178C267.948 345.186 264.64 342.025 260.213 337.678C259.717 337.161 256.054 333.676 252.079 329.858C242.75 320.916 243.59 321.714 239.421 317.669C237.428 315.739 235.381 313.775 234.897 313.301C234.412 312.826 232.785 311.262 231.288 309.849C229.79 308.436 228.164 306.872 227.679 306.398C227.194 305.923 225.201 303.992 223.273 302.137C221.344 300.282 218.037 297.121 215.893 295.136C213.793 293.141 211.789 291.167 211.412 290.757C211.035 290.347 209.408 288.783 207.803 287.305C206.198 285.828 204.571 284.264 204.194 283.854C203.86 283.433 201.813 281.47 199.713 279.475C197.569 277.49 194.262 274.329 192.333 272.474C190.394 270.576 188.412 268.688 187.927 268.213C187.442 267.739 185.396 265.776 183.403 263.845C181.41 261.914 179.363 259.951 178.878 259.476C178.393 259.002 176.411 257.114 174.472 255.216C172.544 253.361 169.236 250.2 167.136 248.205C165.035 246.209 161.728 243.049 159.799 241.193C157.871 239.338 155.878 237.407 155.393 236.933C154.908 236.458 152.926 234.57 150.987 232.672C149.016 230.828 145.708 227.667 143.608 225.672C141.507 223.676 139.503 221.702 139.126 221.292C138.749 220.882 136.746 218.909 134.645 216.913C132.501 214.928 128.817 211.358 126.404 209.028C123.592 206.202 121.771 204.778 121.297 204.896C120.176 205.176 113.732 218.646 114.076 220.026C114.162 220.371 115.411 221.709 116.79 223.014C118.212 224.308 119.591 225.613 119.807 225.926C120.065 226.228 121.994 228.083 124.137 230.068C126.238 232.064 129.545 235.224 131.474 237.079C133.402 238.935 135.395 240.865 135.88 241.34C136.365 241.814 138.347 243.702 140.286 245.601C142.214 247.456 145.521 250.616 147.665 252.601C149.766 254.597 151.77 256.57 152.147 256.98C152.481 257.401 154.107 258.965 155.713 260.443C157.361 261.91 160.614 265.038 162.973 267.335C165.333 269.633 168.586 272.761 170.191 274.239C171.796 275.716 173.488 277.356 173.983 277.874C174.436 278.402 178.529 282.328 183.032 286.611C187.536 290.893 192.782 295.952 194.71 297.807C196.639 299.662 198.631 301.593 199.116 302.068C199.601 302.542 201.583 304.43 203.522 306.328C205.451 308.184 208.758 311.344 210.859 313.34C212.959 315.335 216.267 318.496 218.195 320.351C220.123 322.206 222.116 324.137 222.601 324.611C223.086 325.086 224.712 326.65 226.21 328.063C227.707 329.476 229.334 331.04 229.819 331.515C230.304 331.989 232.297 333.92 234.225 335.775C236.153 337.631 239.46 340.791 241.561 342.787C243.662 344.782 246.129 347.144 247.045 348.061C251.31 352.311 255.232 355.731 255.846 355.806C256.224 355.85 258.154 355.14 260.116 354.192C267.049 350.952 270.532 348.938 270.5 348.076C270.458 347.72 269.833 346.868 269.111 346.178Z" fill="#978AE6"/>
<path d="M232.949 358.767C231.656 357.624 229.146 355.272 227.401 353.6C225.688 351.874 223.835 350.138 223.35 349.663C222.866 349.189 221.239 347.625 219.742 346.212C218.233 344.755 216.607 343.191 216.122 342.717C212.642 339.416 209.691 336.579 209.012 335.878C208.581 335.436 206.48 333.44 204.38 331.445C202.279 329.449 198.972 326.289 197.043 324.434C195.115 322.578 193.133 320.691 192.648 320.216C192.163 319.742 190.17 317.811 188.242 315.955C186.303 314.057 182.996 310.897 180.895 308.901C177.038 305.191 173.02 301.383 166.858 295.407C164.994 293.627 161.687 290.467 159.532 288.439C157.378 286.411 155.374 284.437 155.008 284.071C154.695 283.736 151.022 280.209 146.874 276.25C142.737 272.335 138.945 268.7 138.45 268.182C137.965 267.708 135.789 265.593 133.634 263.566C131.48 261.538 129.595 259.672 129.401 259.445C129.218 259.262 127.58 257.655 125.781 255.95C123.982 254.246 122.183 252.542 121.763 252.143C113.953 244.517 109.396 240.385 108.878 240.514C107.886 240.762 106.639 253.394 107.088 258.871C107.227 260.897 107.636 261.436 112.43 265.967C114.574 267.951 117.881 271.112 119.809 272.967C121.748 274.866 123.731 276.753 124.215 277.228C124.7 277.702 127.113 280.032 129.537 282.405C131.961 284.778 135.311 287.928 136.917 289.406C138.522 290.884 140.148 292.448 140.482 292.868C140.859 293.278 142.863 295.252 144.964 297.247C147.108 299.232 150.415 302.393 152.343 304.248C154.282 306.146 156.265 308.034 156.749 308.509C157.234 308.983 159.216 310.871 161.155 312.769C163.084 314.624 166.391 317.785 168.492 319.78C170.635 321.765 172.693 323.771 173.113 324.171C175.138 326.231 181.333 332.152 184.802 335.41C186.902 337.406 188.842 339.304 189.1 339.606C189.359 339.908 190.274 340.825 191.158 341.612C193.775 344.028 201.176 351.115 205.238 355.095C215.062 364.738 214.879 364.555 217.348 364.535C225.346 364.465 235.458 362.768 235.33 361.517C235.287 361.162 234.199 359.921 232.949 358.767Z" fill="#978AE6"/>
<path d="M180.854 356.136C179.454 354.745 177.892 353.256 177.407 352.782C176.933 352.35 175.306 350.786 173.809 349.373C172.311 347.96 170.685 346.396 170.2 345.921C169.715 345.447 167.733 343.559 165.794 341.661C163.865 339.806 160.558 336.645 158.457 334.65C156.357 332.654 153.114 329.569 151.24 327.746C146.898 323.561 147.124 323.734 142.384 319.236C140.165 317.132 136.782 313.853 134.854 311.998C132.915 310.1 130.933 308.212 130.448 307.737C128.767 306.141 122.304 299.874 121.69 299.248C120.903 298.483 116.928 294.664 115.215 293.122C113.793 291.827 112.726 291.773 113.027 292.98C114.102 297.293 121.671 312.216 125.451 317.457C128.531 321.728 129.554 323.076 131.913 325.923C143.438 339.814 159.008 351.002 175.97 357.491C178.395 358.398 180.593 359.133 180.766 359.09C180.982 359.036 181.445 359.241 181.833 359.511C182.673 360.126 183.773 359.943 183.59 359.21C183.472 358.919 182.255 357.528 180.854 356.136Z" fill="#978AE6"/>
</svg>
