<svg width="233" height="297" viewBox="0 0 233 297" fill="none" xmlns="http://www.w3.org/2000/svg">
<g filter="url(#filter0_d_35_202)">
<path d="M265.154 130.202L243.382 113.192L251.231 103.145C253.402 100.367 252.911 96.3666 250.133 94.1962C247.355 92.0258 243.355 92.5169 241.184 95.2949L233.334 105.342L203.193 81.793L211.043 71.7459C213.213 68.9678 212.717 64.964 209.944 62.7975C207.171 60.631 203.166 61.1182 200.996 63.8962L193.146 73.9433L163.004 50.3943L170.854 40.3471C173.025 37.5691 172.528 33.5652 169.755 31.3987C166.982 29.2322 162.977 29.7194 160.807 32.4975L152.957 42.5446L131.19 25.5383C123.791 19.757 113.11 21.0638 107.329 28.4635L14.4395 147.356C8.65822 154.756 9.97009 165.44 17.3698 171.222L151.333 275.885C158.733 281.667 169.412 280.351 175.194 272.951L268.083 154.058C273.864 146.659 272.553 135.983 265.154 130.202ZM165.147 265.102C163.702 266.95 161.027 267.279 159.183 265.838L25.2195 161.175C23.3708 159.73 23.0423 157.055 24.4866 155.206L117.376 36.3132C118.816 34.4696 121.492 34.1411 123.341 35.5854L145.108 52.5917L137.258 62.6389C135.088 65.4169 135.584 69.4208 138.357 71.5873C141.13 73.7538 145.135 73.2666 147.305 70.4886L155.155 60.4414L185.296 83.9905L177.447 94.0376C175.276 96.8156 175.772 100.82 178.545 102.986C181.318 105.153 185.323 104.665 187.494 101.887L195.343 91.8402L225.485 115.389L217.635 125.436C215.465 128.214 215.956 132.214 218.734 134.385C221.512 136.555 225.512 136.064 227.682 133.286L235.532 123.239L257.304 140.249C259.148 141.69 259.476 144.365 258.036 146.209L165.147 265.102Z" fill="#6F59F4"/>
<path d="M137.728 103.456L117.634 87.7567L105.859 102.827L125.954 118.527L137.728 103.456Z" fill="#6E5FC7"/>
<path d="M118.104 128.574L98.0095 112.875L86.235 127.945L106.329 143.645L118.104 128.574Z" fill="#6E5FC7"/>
<path d="M98.4796 153.692L78.3854 137.992L66.6109 153.063L86.7051 168.762L98.4796 153.692Z" fill="#6E5FC7"/>
<path d="M133.645 181.166L113.55 165.466L101.776 180.537L121.87 196.236L133.645 181.166Z" fill="#6E5FC7"/>
<path d="M153.269 156.048L133.175 140.348L121.4 155.419L141.494 171.119L153.269 156.048Z" fill="#6E5FC7"/>
<path d="M172.893 130.93L152.799 115.231L141.024 130.301L161.118 146.001L172.893 130.93Z" fill="#6E5FC7"/>
<path d="M168.81 208.64L148.715 192.94L136.941 208.011L157.035 223.71L168.81 208.64Z" fill="#6E5FC7"/>
<path d="M188.434 183.522L168.339 167.822L156.565 182.893L176.659 198.592L188.434 183.522Z" fill="#6E5FC7"/>
<path d="M208.058 158.404L187.964 142.704L176.189 157.775L196.283 173.475L208.058 158.404Z" fill="#6E5FC7"/>
</g>
<defs>
<filter id="filter0_d_35_202" x="-6.02808" y="-3" width="306.349" height="306.349" filterUnits="userSpaceOnUse" color-interpolation-filters="sRGB">
<feFlood flood-opacity="0" result="BackgroundImageFix"/>
<feColorMatrix in="SourceAlpha" type="matrix" values="0 0 0 0 0 0 0 0 0 0 0 0 0 0 0 0 0 0 127 0" result="hardAlpha"/>
<feOffset dy="7"/>
<feGaussianBlur stdDeviation="5"/>
<feComposite in2="hardAlpha" operator="out"/>
<feColorMatrix type="matrix" values="0 0 0 0 0.9125 0 0 0 0 0.715434 0 0 0 0 0.47526 0 0 0 0.46 0"/>
<feBlend mode="normal" in2="BackgroundImageFix" result="effect1_dropShadow_35_202"/>
<feBlend mode="normal" in="SourceGraphic" in2="effect1_dropShadow_35_202" result="shape"/>
</filter>
</defs>
</svg>
