<svg width="463" height="439" viewBox="0 0 463 439" fill="none" xmlns="http://www.w3.org/2000/svg">
<g clip-path="url(#clip0_35_214)">
<path d="M-97.2111 -152.757C-44.669 -193.99 9.05663 -206.237 62.6996 -189.236C152.825 -160.006 220.94 -50.7563 245.996 39.0233C282.6 167.894 212.208 224.594 209.037 227.082C205.866 229.57 134.033 284.483 14.9914 220.306C-68.0412 176.025 -160.976 85.5232 -169.21 -7.24209C-173.935 -62.6331 -149.753 -111.524 -97.2111 -152.757ZM195.706 210.548C197.971 208.771 257.678 158.997 225.551 44.8526C201.927 -39.4834 138.856 -142.476 56.2243 -168.832C10.1682 -183.762 -37.2265 -172.835 -83.8803 -136.223C-130.534 -99.6107 -151.988 -56.5088 -147.603 -8.87694C-140.161 76.4846 -52.6306 160.283 25.3476 201.964C130.852 258.524 192.989 212.681 195.706 210.548Z" fill="#6E5FC7"/>
<path d="M132.194 -24.1587L150.754 -35.0762C188.183 26.0229 195.852 63.0518 197.53 109.16L176.015 109.993C174.512 65.9359 167.193 33.01 132.194 -24.1587Z" fill="#6E5FC7"/>
<path d="M-142.146 -116.764C-135.351 -122.096 -128.65 -126.626 -120.682 -131.419C-116.245 -134.171 -110.192 -133.085 -106.95 -129.063C-103.707 -125.041 -103.995 -118.978 -107.711 -115.332C-140.53 -80.8221 -153.655 -42.0669 -146.635 0.578349C-133.038 82.5681 -48.2965 161.989 24.9874 201.517C66.864 224.105 107.063 232.687 144.225 228.33C148.384 227.985 151.904 229.6 154.426 232.728C156.495 236.212 156.845 240.315 154.756 244.144C128.052 289.906 92.6706 303.809 88.7794 305.404C83.169 307.618 -2.32464 334.581 -93.0772 239.449C-154.811 174.805 -211.551 70.4917 -199.187 -18.739C-192.928 -58.6724 -174.305 -91.5269 -142.146 -116.764ZM124.727 250.927C89.7477 250.653 52.9872 240.831 14.9915 220.306C-65.3336 177.548 -152.864 93.7496 -167.707 4.7116C-171.084 -15.9864 -170.394 -36.2273 -165.73 -55.2089C-172.092 -42.9202 -176.107 -29.5549 -177.775 -15.1131C-189.305 66.8967 -135.53 164.781 -77.4916 225.758C5.24186 311.862 78.8869 287.631 81.5119 286.3C81.9648 285.945 103.953 277.445 124.727 250.927Z" fill="#6E5FC7"/>
<path d="M-51.5558 -187.856C-19.3964 -213.093 17.2408 -223.604 58.4484 -220.191C148.996 -212.451 240.068 -134.35 289.572 -60.1092C362.752 48.0837 316.891 124.203 313.802 129.545C311.805 132.571 289.662 163.811 238.459 179.186C234.207 180.334 230.233 179.075 227.259 176.302C224.284 173.529 223.573 168.979 225.21 165.506C238.233 131.209 237.986 90.5447 225.551 44.8526C202.997 -34.4866 144.075 -134.169 65.7052 -165.328C25.1669 -181.67 -16.0615 -177.77 -57.5268 -153.985C-61.9636 -151.233 -68.0166 -152.32 -71.2592 -156.342C-74.5018 -160.363 -74.2136 -166.427 -70.4973 -170.073C-64.331 -177.1 -57.897 -182.879 -51.5558 -187.856ZM278.534 135.333C290.311 126.091 295.757 118.17 296.21 117.814C297.754 115.143 338.612 50.2467 272.185 -48.6534C225.018 -118.162 140.441 -191.875 56.8526 -199.239C41.7613 -200.529 27.6582 -199.676 14.5434 -196.68C34.3392 -196.893 54.4849 -193.003 74.1673 -185.102C159.218 -151.159 221.836 -47.811 245.996 39.0233C257.36 79.7186 259.151 117.712 251.553 151.4C262.866 146.169 271.74 140.665 278.534 135.333Z" fill="#6E5FC7"/>
</g>
<defs>
<clipPath id="clip0_35_214">
<rect width="575.771" height="574.023" fill="white" transform="matrix(-0.786683 0.617357 -0.627661 -0.778487 462.534 82.8693)"/>
</clipPath>
</defs>
</svg>
