<svg width="190" height="193" viewBox="0 0 190 193" fill="none" xmlns="http://www.w3.org/2000/svg">
<g filter="url(#filter0_d_35_202)">
<path d="M171.126 17.9551L147.564 17.7079L147.678 6.85319C147.71 3.85186 145.305 1.40033 142.299 1.36879C139.292 1.33725 136.837 3.73779 136.805 6.73913L136.691 17.5939L104.072 17.2517L104.186 6.39693C104.217 3.39559 101.807 0.944011 98.8063 0.912528C95.8054 0.881046 93.3444 3.28153 93.3129 6.28286L93.199 17.1376L60.5799 16.7954L60.6938 5.94066C60.7253 2.93933 58.3151 0.487746 55.3142 0.456264C52.3132 0.424782 49.8522 2.82526 49.8207 5.8266L49.7069 16.6813L26.1504 16.4342C18.1424 16.3502 11.5833 22.7569 11.4994 30.7515L10.1519 159.201C10.068 167.195 16.4912 173.744 24.4992 173.828L169.475 175.349C177.483 175.433 184.037 169.021 184.121 161.026L185.468 32.5765C185.552 24.582 179.134 18.0391 171.126 17.9551ZM173.247 160.912C173.227 162.909 171.584 164.515 169.589 164.494L24.6131 162.973C22.6125 162.952 21.004 161.312 21.0249 159.315L22.3725 30.8655C22.3934 28.8737 24.0359 27.268 26.0365 27.2889L49.593 27.5361L49.4791 38.3908C49.4476 41.3921 51.8577 43.8437 54.8587 43.8752C57.8596 43.9067 60.3207 41.5062 60.3521 38.5049L60.466 27.6501L93.0851 27.9923L92.9713 38.8471C92.9398 41.8484 95.3499 44.3 98.3508 44.3315C101.352 44.3629 103.813 41.9625 103.844 38.9611L103.958 28.1064L136.577 28.4486L136.463 39.3033C136.432 42.3047 138.837 44.7562 141.843 44.7877C144.849 44.8193 147.305 42.4187 147.336 39.4174L147.45 28.5627L171.012 28.8098C173.007 28.8308 174.616 30.4706 174.595 32.4624L173.247 160.912Z" fill="#6F59F4"/>
<path d="M70.9405 65.7558L49.1945 65.5276L49.0236 81.8097L70.7697 82.0379L70.9405 65.7558Z" fill="#6E5FC7"/>
<path d="M70.6559 92.8926L48.9098 92.6645L48.739 108.947L70.4851 109.175L70.6559 92.8926Z" fill="#6E5FC7"/>
<path d="M70.3711 120.029L48.625 119.801L48.4542 136.083L70.2003 136.312L70.3711 120.029Z" fill="#6E5FC7"/>
<path d="M108.427 120.429L86.6807 120.201L86.5099 136.483L108.256 136.711L108.427 120.429Z" fill="#6E5FC7"/>
<path d="M108.711 93.2918L86.9653 93.0637L86.7945 109.346L108.541 109.574L108.711 93.2918Z" fill="#6E5FC7"/>
<path d="M108.996 66.155L87.25 65.9269L87.0792 82.209L108.825 82.4371L108.996 66.155Z" fill="#6E5FC7"/>
<path d="M146.482 120.828L124.736 120.6L124.566 136.882L146.312 137.11L146.482 120.828Z" fill="#6E5FC7"/>
<path d="M146.767 93.691L125.021 93.4629L124.85 109.745L146.596 109.973L146.767 93.691Z" fill="#6E5FC7"/>
<path d="M147.052 66.5542L125.306 66.3261L125.135 82.6082L146.881 82.8363L147.052 66.5542Z" fill="#6E5FC7"/>
</g>
<defs>
<filter id="filter0_d_35_202" x="0" y="-3" width="195.791" height="195.501" filterUnits="userSpaceOnUse" color-interpolation-filters="sRGB">
<feFlood flood-opacity="0" result="BackgroundImageFix"/>
<feColorMatrix in="SourceAlpha" type="matrix" values="0 0 0 0 0 0 0 0 0 0 0 0 0 0 0 0 0 0 127 0" result="hardAlpha"/>
<feOffset dy="7"/>
<feGaussianBlur stdDeviation="5"/>
<feComposite in2="hardAlpha" operator="out"/>
<feColorMatrix type="matrix" values="0 0 0 0 0.9125 0 0 0 0 0.715434 0 0 0 0 0.47526 0 0 0 0.46 0"/>
<feBlend mode="normal" in2="BackgroundImageFix" result="effect1_dropShadow_35_202"/>
<feBlend mode="normal" in="SourceGraphic" in2="effect1_dropShadow_35_202" result="shape"/>
</filter>
</defs>
</svg>
