<svg width="19" height="22" viewBox="0 0 19 22" fill="none" xmlns="http://www.w3.org/2000/svg">
<path d="M15.7501 10.5356H17.2793C17.2793 6.01608 14.318 2.60748 10.3904 2.60748V4.36949C13.4961 4.36949 15.7501 6.96228 15.7501 10.5356Z" fill="#0E0D0D"/>
<path d="M10.398 7.89349C12.0059 7.89349 12.6918 8.68375 12.6918 10.5365H14.2209C14.2209 7.69526 12.8638 6.13148 10.398 6.13148V7.89349ZM13.0144 12.6888C12.8675 12.5349 12.6744 12.4529 12.476 12.4599C12.2776 12.467 12.0893 12.5626 11.9509 12.7267L10.1212 14.8948C9.68082 14.7979 8.79544 14.4799 7.88405 13.4324C6.97267 12.3813 6.69665 11.3585 6.61484 10.8545L8.49495 8.74542C8.63748 8.58607 8.72061 8.36907 8.72675 8.14035C8.73288 7.91163 8.66154 7.68913 8.52783 7.51994L5.7027 3.94043C5.56893 3.77071 5.38301 3.66776 5.18443 3.65345C4.98584 3.63914 4.79024 3.71459 4.63916 3.86378L2.98001 5.50333C2.84783 5.6562 2.76893 5.85965 2.75829 6.0751C2.74682 6.29535 2.52815 11.5126 6.03911 15.56C9.10203 19.0884 12.9387 19.3465 13.9954 19.3465C14.1498 19.3465 14.2446 19.3412 14.2699 19.3395C14.4568 19.3274 14.6333 19.2361 14.7653 19.0831L16.1874 17.1704C16.317 16.9965 16.3826 16.7712 16.3703 16.5423C16.3581 16.3135 16.2689 16.0992 16.1217 15.945L13.0144 12.6888V12.6888Z" fill="#0E0D0D"/>
</svg>
