<svg width="19" height="22" viewBox="0 0 19 22" fill="none" xmlns="http://www.w3.org/2000/svg">
<path d="M9.6335 1.74316C7.96117 1.74544 6.3579 2.51193 5.17538 3.8745C3.99287 5.23707 3.32766 7.08446 3.32569 9.01143C3.32369 10.5861 3.77009 12.1181 4.59643 13.3724C4.59643 13.3724 4.76846 13.6334 4.79656 13.671L9.6335 20.2442L14.4727 13.6677C14.498 13.6327 14.6706 13.3724 14.6706 13.3724L14.6712 13.3704C15.4971 12.1167 15.9433 10.5854 15.9413 9.01143C15.9393 7.08446 15.2741 5.23707 14.0916 3.8745C12.9091 2.51193 11.3058 1.74544 9.6335 1.74316V1.74316ZM9.6335 11.6544C9.17984 11.6544 8.73637 11.4994 8.35916 11.209C7.98196 10.9186 7.68796 10.5058 7.51435 10.0229C7.34075 9.53992 7.29532 9.0085 7.38383 8.4958C7.47233 7.98311 7.69079 7.51217 8.01158 7.14254C8.33236 6.77291 8.74107 6.52119 9.18601 6.41921C9.63096 6.31723 10.0922 6.36957 10.5113 6.56961C10.9304 6.76965 11.2886 7.10841 11.5407 7.54305C11.7927 7.97769 11.9273 8.48869 11.9273 9.01143C11.9265 9.71213 11.6846 10.3839 11.2546 10.8793C10.8246 11.3748 10.2416 11.6536 9.6335 11.6544V11.6544Z" fill="#0E0D0D"/>
</svg>
