<svg width="241" height="68" viewBox="0 0 241 68" fill="none" xmlns="http://www.w3.org/2000/svg">
<path d="M10.5 44L12.8574 52.2918H20.4861L14.3143 57.4164L16.6717 65.7082L10.5 60.5836L4.32825 65.7082L6.68565 57.4164L0.513906 52.2918H8.1426L10.5 44Z" fill="#090808"/>
<path d="M46.5 44L48.8574 52.2918H56.4861L50.3143 57.4164L52.6717 65.7082L46.5 60.5836L40.3283 65.7082L42.6857 57.4164L36.5139 52.2918H44.1426L46.5 44Z" fill="black"/>
<path d="M82.5 44L84.8574 52.2918H92.4861L86.3143 57.4164L88.6717 65.7082L82.5 60.5836L76.3283 65.7082L78.6857 57.4164L72.5139 52.2918H80.1426L82.5 44Z" fill="#010101"/>
<path d="M122.5 44L124.857 52.2918H132.486L126.314 57.4164L128.672 65.7082L122.5 60.5836L116.328 65.7082L118.686 57.4164L112.514 52.2918H120.143L122.5 44Z" fill="black"/>
<path d="M195.052 64.8182V46.6364H196.217V64.8182H195.052ZM198.695 52.2756C198.62 51.6032 198.307 51.0824 197.758 50.7131C197.209 50.339 196.517 50.152 195.684 50.152C195.087 50.152 194.571 50.2467 194.136 50.4361C193.7 50.6207 193.362 50.8764 193.12 51.2031C192.883 51.5251 192.765 51.892 192.765 52.304C192.765 52.6496 192.845 52.9479 193.006 53.1989C193.172 53.4498 193.388 53.6605 193.653 53.831C193.923 53.9967 194.211 54.1364 194.519 54.25C194.827 54.3589 195.123 54.4489 195.407 54.5199L196.827 54.8892C197.291 55.0028 197.767 55.1567 198.255 55.3509C198.743 55.545 199.195 55.8007 199.612 56.1179C200.028 56.4351 200.364 56.8281 200.62 57.2969C200.88 57.7656 201.011 58.3267 201.011 58.9801C201.011 59.804 200.798 60.5355 200.371 61.1747C199.95 61.8139 199.337 62.3182 198.532 62.6875C197.732 63.0568 196.763 63.2415 195.627 63.2415C194.538 63.2415 193.596 63.0687 192.8 62.723C192.005 62.3774 191.382 61.8873 190.933 61.2528C190.483 60.6136 190.234 59.8561 190.187 58.9801H192.388C192.431 59.5057 192.602 59.9437 192.9 60.294C193.203 60.6397 193.589 60.8977 194.058 61.0682C194.531 61.2339 195.049 61.3168 195.613 61.3168C196.233 61.3168 196.785 61.2197 197.268 61.0256C197.755 60.8267 198.139 60.5521 198.418 60.2017C198.698 59.8466 198.837 59.4323 198.837 58.9588C198.837 58.5279 198.714 58.1752 198.468 57.9006C198.227 57.6259 197.897 57.3987 197.481 57.2188C197.069 57.0388 196.603 56.8802 196.082 56.7429L194.363 56.2741C193.198 55.9569 192.275 55.4905 191.593 54.875C190.916 54.2595 190.577 53.4451 190.577 52.4318C190.577 51.5937 190.805 50.8622 191.259 50.2372C191.714 49.6122 192.329 49.1269 193.106 48.7812C193.882 48.4309 194.758 48.2557 195.734 48.2557C196.719 48.2557 197.587 48.4285 198.34 48.7741C199.098 49.1198 199.694 49.5956 200.13 50.2017C200.566 50.803 200.793 51.4943 200.812 52.2756H198.695ZM208.498 63.1989C207.523 63.1989 206.652 63.0308 205.885 62.6946C205.122 62.3584 204.519 61.892 204.074 61.2955C203.633 60.6941 203.396 59.9981 203.363 59.2074H205.593C205.622 59.6383 205.766 60.0123 206.027 60.3295C206.292 60.642 206.637 60.8835 207.064 61.054C207.49 61.2244 207.963 61.3097 208.484 61.3097C209.057 61.3097 209.564 61.2102 210.004 61.0114C210.449 60.8125 210.797 60.5355 211.048 60.1804C211.299 59.8205 211.424 59.4062 211.424 58.9375C211.424 58.4498 211.299 58.0213 211.048 57.652C210.802 57.2779 210.44 56.9844 209.961 56.7713C209.488 56.5582 208.915 56.4517 208.243 56.4517H207.014V54.6619H208.243C208.782 54.6619 209.256 54.5649 209.663 54.3707C210.075 54.1766 210.397 53.9067 210.629 53.5611C210.861 53.2107 210.977 52.8011 210.977 52.3324C210.977 51.8826 210.875 51.492 210.672 51.1605C210.473 50.8243 210.189 50.5616 209.819 50.3722C209.455 50.1828 209.024 50.0881 208.527 50.0881C208.053 50.0881 207.61 50.1757 207.199 50.3509C206.791 50.5213 206.46 50.7675 206.204 51.0895C205.949 51.4067 205.811 51.7879 205.792 52.233H203.669C203.692 51.447 203.924 50.7557 204.365 50.1591C204.81 49.5625 205.397 49.0961 206.126 48.7599C206.855 48.4238 207.665 48.2557 208.555 48.2557C209.488 48.2557 210.293 48.438 210.97 48.8026C211.652 49.1624 212.177 49.643 212.547 50.2443C212.921 50.8456 213.105 51.5038 213.1 52.2188C213.105 53.0331 212.878 53.7244 212.419 54.2926C211.964 54.8608 211.358 55.242 210.6 55.4361V55.5497C211.566 55.6965 212.315 56.08 212.845 56.7003C213.38 57.3205 213.645 58.09 213.64 59.0085C213.645 59.8087 213.422 60.526 212.973 61.1605C212.528 61.795 211.919 62.2945 211.147 62.6591C210.376 63.0189 209.493 63.1989 208.498 63.1989ZM221.389 63.2415C220.267 63.2367 219.308 62.9408 218.512 62.3537C217.717 61.7666 217.109 60.9119 216.687 59.7898C216.266 58.6676 216.055 57.3158 216.055 55.7344C216.055 54.1577 216.266 52.8106 216.687 51.6932C217.113 50.5758 217.724 49.7235 218.52 49.1364C219.32 48.5492 220.276 48.2557 221.389 48.2557C222.502 48.2557 223.456 48.5516 224.251 49.1435C225.047 49.7306 225.655 50.5829 226.076 51.7003C226.502 52.813 226.716 54.1577 226.716 55.7344C226.716 57.3205 226.505 58.6747 226.083 59.7969C225.662 60.9143 225.054 61.7689 224.258 62.3608C223.463 62.9479 222.506 63.2415 221.389 63.2415ZM221.389 61.3452C222.374 61.3452 223.143 60.8646 223.697 59.9034C224.256 58.9422 224.535 57.5526 224.535 55.7344C224.535 54.527 224.407 53.5066 224.152 52.6733C223.901 51.8352 223.538 51.2008 223.065 50.7699C222.596 50.3343 222.038 50.1165 221.389 50.1165C220.409 50.1165 219.639 50.5994 219.081 51.5653C218.522 52.5312 218.24 53.9209 218.235 55.7344C218.235 56.9465 218.361 57.9716 218.612 58.8097C218.868 59.643 219.23 60.2751 219.699 60.706C220.167 61.1321 220.731 61.3452 221.389 61.3452Z" fill="black"/>
<path d="M20.6912 12V3.27273H22.008V7.44034H22.1145L25.775 3.27273H27.4327L23.9128 7.2017L27.4455 12H25.8603L23.0392 8.10085L22.008 9.28551V12H20.6912ZM29.9767 3.27273V12H28.66V3.27273H29.9767ZM37.8006 6.02983C37.7182 5.77131 37.6074 5.53977 37.4682 5.33523C37.3319 5.12784 37.1685 4.9517 36.9782 4.80682C36.7878 4.65909 36.5705 4.54687 36.3262 4.47017C36.0847 4.39347 35.8191 4.35511 35.5293 4.35511C35.0378 4.35511 34.5946 4.48153 34.1998 4.73438C33.8049 4.98722 33.4924 5.35795 33.2623 5.84659C33.035 6.33239 32.9213 6.92756 32.9213 7.6321C32.9213 8.33949 33.0364 8.9375 33.2665 9.42614C33.4966 9.91477 33.812 10.2855 34.2125 10.5384C34.6131 10.7912 35.0691 10.9176 35.5804 10.9176C36.0549 10.9176 36.4682 10.821 36.8205 10.6278C37.1756 10.4347 37.4498 10.1619 37.6429 9.80966C37.839 9.45455 37.937 9.03693 37.937 8.55682L38.2779 8.62074H35.7807V7.53409H39.2111V8.52699C39.2111 9.25994 39.0549 9.89631 38.7424 10.4361C38.4327 10.973 38.0037 11.3878 37.4554 11.6804C36.91 11.973 36.285 12.1193 35.5804 12.1193C34.7907 12.1193 34.0975 11.9375 33.5009 11.5739C32.9071 11.2102 32.4441 10.6946 32.1117 10.027C31.7793 9.35653 31.6131 8.56108 31.6131 7.64062C31.6131 6.9446 31.7097 6.3196 31.9029 5.76562C32.0961 5.21165 32.3674 4.74148 32.7168 4.35511C33.0691 3.96591 33.4824 3.66903 33.9569 3.46449C34.4341 3.2571 34.9554 3.15341 35.5208 3.15341C35.9924 3.15341 36.4313 3.22301 36.8375 3.36222C37.2466 3.50142 37.6103 3.69886 37.9284 3.95455C38.2495 4.21023 38.5151 4.5142 38.7253 4.86648C38.9355 5.21591 39.0776 5.60369 39.1515 6.02983H37.8006ZM41.3503 12H39.9526L43.0932 3.27273H44.6145L47.7551 12H46.3574L43.8901 4.85795H43.8219L41.3503 12ZM41.5847 8.58239H46.1188V9.69034H41.5847V8.58239ZM49.0154 12V3.27273H50.3322V10.8665H54.2868V12H49.0154ZM57.1056 3.27273V12H55.7889V3.27273H57.1056ZM60.5787 10.8068L60.5147 11.2713C60.4721 11.6122 60.3997 11.9673 60.2974 12.3366C60.198 12.7088 60.0943 13.054 59.9863 13.3722C59.8812 13.6903 59.7946 13.9432 59.7264 14.1307H58.823C58.8599 13.9545 58.911 13.7159 58.9764 13.4148C59.0417 13.1165 59.1056 12.7827 59.1681 12.4134C59.2306 12.044 59.2775 11.6676 59.3088 11.2841L59.3514 10.8068H60.5787ZM65.5154 12V3.27273H68.6262C69.3024 3.27273 69.8635 3.3892 70.3095 3.62216C70.7583 3.85511 71.0936 4.17756 71.3152 4.58949C71.5368 4.99858 71.6476 5.47159 71.6476 6.00852C71.6476 6.54261 71.5353 7.01278 71.3109 7.41903C71.0893 7.82244 70.7541 8.13636 70.3052 8.3608C69.8592 8.58523 69.2981 8.69744 68.622 8.69744H66.2654V7.56392H68.5027C68.9288 7.56392 69.2754 7.50284 69.5424 7.38068C69.8123 7.25852 70.0098 7.08097 70.1348 6.84801C70.2598 6.61506 70.3223 6.33523 70.3223 6.00852C70.3223 5.67898 70.2583 5.39347 70.1305 5.15199C70.0055 4.91051 69.8081 4.72585 69.5382 4.59801C69.2711 4.46733 68.9203 4.40199 68.4856 4.40199H66.8322V12H65.5154ZM69.8237 8.0625L71.9799 12H70.4799L68.3663 8.0625H69.8237ZM74.9586 12L72.5382 3.27273H73.9231L75.6234 10.0312H75.7044L77.4728 3.27273H78.845L80.6135 10.0355H80.6944L82.3904 3.27273H83.7797L81.3549 12H80.0297L78.193 5.46307H78.1248L76.2882 12H74.9586ZM84.9675 12H83.5698L86.7104 3.27273H88.2317L91.3723 12H89.9746L87.5073 4.85795H87.4391L84.9675 12ZM85.2019 8.58239H89.736V9.69034H85.2019V8.58239ZM99.6767 3.27273V12H98.4664L94.0304 5.59943H93.9494V12H92.6326V3.27273H93.8514L98.2917 9.68182H98.3727V3.27273H99.6767ZM104.423 12H101.597V3.27273H104.512C105.367 3.27273 106.102 3.44744 106.715 3.79688C107.329 4.14347 107.799 4.64205 108.126 5.29261C108.455 5.94034 108.62 6.71733 108.62 7.62358C108.62 8.53267 108.454 9.31392 108.122 9.96733C107.792 10.6207 107.315 11.1236 106.69 11.4759C106.065 11.8253 105.309 12 104.423 12ZM102.914 10.8494H104.35C105.015 10.8494 105.568 10.7244 106.008 10.4744C106.448 10.2216 106.778 9.85653 106.997 9.37926C107.215 8.89915 107.325 8.31392 107.325 7.62358C107.325 6.93892 107.215 6.35795 106.997 5.88068C106.781 5.40341 106.458 5.04119 106.029 4.79403C105.6 4.54687 105.068 4.4233 104.431 4.4233H102.914V10.8494ZM110.561 12H109.164L112.304 3.27273H113.825L116.966 12H115.568L113.101 4.85795H113.033L110.561 12ZM110.796 8.58239H115.33V9.69034H110.796V8.58239Z" fill="black"/>
</svg>
